<?xml version="1.0" encoding="UTF-8"?>
<svg version="1.1" xmlns="http://www.w3.org/2000/svg" width="500" height="500">
<path d="M0 0 C2.83538983 2.51917535 5.60183545 5.10199163 8.33496094 7.73144531 C10.55828464 9.85879821 12.81492353 11.85857705 15.17480469 13.82910156 C51.89898828 45.77991118 75.67795656 95.55341479 85.48730469 142.32910156 C85.8395813 144.00734009 85.8395813 144.00734009 86.19897461 145.71948242 C89.37823271 161.9171021 90.43680977 178.10245562 90.36230469 194.57910156 C90.35957047 195.8483699 90.35957047 195.8483699 90.35678101 197.14328003 C90.27959691 218.52780075 87.33816343 238.61466946 82.04980469 259.32910156 C81.77595947 260.42931641 81.77595947 260.42931641 81.49658203 261.55175781 C74.76398454 288.15888364 62.07150128 314.10127921 46.04980469 336.32910156 C45.57397949 336.99280762 45.0981543 337.65651367 44.60791016 338.34033203 C38.88422724 346.27446365 32.96282698 353.83031994 26.26074219 360.96582031 C24.38147206 362.97458079 22.61734066 365.0257587 20.86230469 367.14160156 C10.68181203 378.77305229 -1.37240483 388.43801387 -13.95019531 397.32910156 C-14.54735352 397.75642578 -15.14451172 398.18375 -15.75976562 398.62402344 C-31.57475017 409.86906513 -48.92410757 419.16595375 -66.95019531 426.32910156 C-67.65611816 426.61591797 -68.36204102 426.90273438 -69.08935547 427.19824219 C-112.93096332 444.86963451 -163.66549788 448.93494287 -209.95019531 439.32910156 C-210.97371094 439.1201123 -211.99722656 438.91112305 -213.05175781 438.69580078 C-261.01097908 428.56517414 -302.80199055 403.88627812 -337.95019531 370.32910156 C-338.74941406 369.57242187 -339.54863281 368.81574219 -340.37207031 368.03613281 C-345.71237394 362.85603829 -350.34076319 357.16003319 -354.95019531 351.32910156 C-355.74425781 350.34039062 -356.53832031 349.35167969 -357.35644531 348.33300781 C-398.92883324 295.64395287 -415.98142784 228.68507707 -409.1809082 162.27905273 C-406.45532587 140.63340195 -400.79351219 119.65331518 -392.95019531 99.32910156 C-392.67626953 98.61141602 -392.40234375 97.89373047 -392.12011719 97.15429688 C-372.17118889 45.83205402 -331.31557757 2.33361386 -283.95019531 -24.67089844 C-283.20334473 -25.09854492 -282.45649414 -25.52619141 -281.68701172 -25.96679688 C-197.16419343 -73.79487268 -88.91775386 -65.53569251 0 0 Z M-308.95019531 22.32910156 C-309.76875 23.02390625 -310.58730469 23.71871094 -311.43066406 24.43457031 C-317.9152186 30.09438024 -323.74979882 36.25387168 -329.46972656 42.67041016 C-330.42266981 43.73807117 -331.38063134 44.80128506 -332.34472656 45.85888672 C-350.47473454 65.78491494 -363.74516113 90.14838823 -372.95019531 115.32910156 C-373.22847168 116.07627441 -373.50674805 116.82344727 -373.79345703 117.59326172 C-393.92875725 172.1663657 -390.65402993 234.38238801 -366.66308594 287.16064453 C-356.07552019 309.71460404 -342.47322999 331.46529874 -324.42675781 348.85253906 C-322.95019531 350.32910156 -322.95019531 350.32910156 -321.01269531 352.82910156 C-318.70214785 355.62976516 -316.20281212 357.85921729 -313.43847656 360.20410156 C-311.61877077 361.75813602 -309.82827279 363.34655357 -308.05566406 364.95410156 C-298.11569904 373.88975388 -287.25388498 381.22741155 -275.95019531 388.32910156 C-275.25168457 388.76883301 -274.55317383 389.20856445 -273.83349609 389.66162109 C-224.6565752 420.11743104 -162.70191231 426.75858759 -107.05566406 414.01269531 C-88.0755179 409.43215975 -70.12489653 402.59828044 -52.95019531 393.32910156 C-51.79519531 392.71550781 -50.64019531 392.10191406 -49.45019531 391.46972656 C-34.95400825 383.49682368 -21.81485625 373.70983006 -9.49316406 362.70458984 C-8.04121338 361.41024013 -6.57428898 360.13274345 -5.10644531 358.85644531 C-0.72895326 355.01295455 3.35831142 351.10790588 7.10058594 346.64160156 C8.58362686 344.88216223 10.1100436 343.15918276 11.65527344 341.45410156 C50.77925325 297.99476183 69.21208186 239.30979994 66.86230469 181.39160156 C64.02310321 130.48107375 43.91120438 80.70679243 9.5546875 42.98535156 C8.1183689 41.40456224 6.70249524 39.80792229 5.29199219 38.20410156 C1.09710237 33.48324696 -3.14697233 29.04291884 -7.98925781 24.98535156 C-9.30538467 23.8737225 -10.5922976 22.72663522 -11.84863281 21.54785156 C-43.90401054 -8.419628 -87.29059243 -24.901436 -129.95019531 -31.67089844 C-131.08585938 -31.8578125 -132.22152344 -32.04472656 -133.39160156 -32.23730469 C-197.10586467 -40.00051348 -260.53674986 -19.03170237 -308.95019531 22.32910156 Z " fill="#211D1E" transform="translate(409.9501953125,56.6708984375)"/>
<path d="M0 0 C2.984375 2.1171875 2.984375 2.1171875 5.75 4.875 C6.78731643 5.88457098 7.82508971 6.89367272 8.86328125 7.90234375 C9.3835791 8.41909668 9.90387695 8.93584961 10.43994141 9.46826172 C12.87728709 11.86136138 15.40798902 14.1418936 17.9375 16.4375 C18.92375756 17.34181525 19.90942713 18.24677216 20.89453125 19.15234375 C23.11599215 21.19184687 25.34394847 23.22404228 27.57421875 25.25390625 C28.75789663 26.33584546 29.94149227 27.41787466 31.125 28.5 C31.68179443 29.0045874 32.23858887 29.5091748 32.81225586 30.02905273 C36.43080778 33.34610554 39.27003702 35.95333637 39.6875 41 C39.47336532 50.42192609 29.38282963 57.77591327 23.09765625 63.91015625 C21.24359625 65.757311 19.51577378 67.63998169 17.8125 69.625 C14.4537504 73.53322246 10.95805784 77.30068322 7.4375 81.0625 C6.8384082 81.70276123 6.23931641 82.34302246 5.62207031 83.00268555 C3.11834675 85.67603539 0.6123386 88.34723884 -1.89355469 91.01855469 C-3.74259673 92.99054601 -5.59007454 94.96399432 -7.4375 96.9375 C-7.99187744 97.52732666 -8.54625488 98.11715332 -9.11743164 98.72485352 C-11.93938272 101.73970066 -14.70406475 104.79068726 -17.41015625 107.91015625 C-21.80475448 112.96239146 -26.42590829 117.79276561 -31.0390625 122.64453125 C-34.88274364 126.70339918 -38.62280296 130.82591055 -42.28515625 135.04882812 C-45.67622426 138.90723011 -49.22593467 142.61901555 -52.75 146.35546875 C-55.70500462 149.50175715 -58.60930535 152.67641842 -61.4375 155.9375 C-65.82145838 160.98198783 -70.43475949 165.80207464 -75.0390625 170.64453125 C-78.87278703 174.69288515 -82.60108156 178.80564761 -86.25390625 183.01757812 C-89.85941303 187.11107856 -93.64362934 191.04028499 -97.39453125 195 C-101.10204417 198.93011721 -104.70311684 202.929217 -108.24511719 207.00878906 C-111.2090871 210.37191353 -114.29452331 213.61890661 -117.375 216.875 C-122.21000637 222.00783614 -126.9936811 227.17473335 -131.6875 232.4375 C-135.18708156 236.3154147 -138.75729581 240.12716558 -142.32446289 243.94287109 C-145.84402 247.71840548 -149.26221913 251.55337082 -152.53515625 255.546875 C-155.23336475 258.22349783 -157.56323623 258.95055505 -161.3125 259.375 C-168.53200363 258.64081319 -172.7979761 254.53522406 -177.71484375 249.5859375 C-179 248 -179 248 -179 246 C-179.66 246 -180.32 246 -181 246 C-182.44690037 244.53253746 -182.44690037 244.53253746 -184.12782288 242.50228882 C-187.87157014 238.10325147 -191.85246513 234.02649823 -195.95483398 229.96337891 C-197.09753502 228.82527771 -197.09753502 228.82527771 -198.26332092 227.66418457 C-199.90291824 226.03169375 -201.5436421 224.40033372 -203.18539238 222.77000809 C-205.78049315 220.19239491 -208.37194989 217.61116896 -210.9624176 215.02890015 C-218.32282209 207.6928788 -225.68895765 200.36263129 -233.05932617 193.03662109 C-237.57787601 188.54476532 -242.09161501 184.04812241 -246.60237312 179.54844284 C-248.32257737 177.83446324 -250.04467872 176.12238551 -251.76867485 174.41222 C-254.16727368 172.03271454 -256.55976282 169.64722613 -258.95092773 167.26025391 C-259.66928802 166.55065521 -260.38764832 165.84105652 -261.1277771 165.10995483 C-261.773965 164.46246277 -262.42015289 163.8149707 -263.08592224 163.14785767 C-263.65202933 162.58489298 -264.21813643 162.02192829 -264.80139828 161.44190407 C-266 160 -266 160 -266 158 C-266.99 157.67 -267.98 157.34 -269 157 C-270.71875 155.29296875 -270.71875 155.29296875 -272.5 153.1875 C-273.0878125 152.50042969 -273.675625 151.81335938 -274.28125 151.10546875 C-274.8484375 150.41066406 -275.415625 149.71585938 -276 149 C-276.55429687 148.33097656 -277.10859375 147.66195312 -277.6796875 146.97265625 C-279.39372716 144.411739 -279.67041061 142.1543082 -279.51708984 139.10107422 C-277.47014932 130.78380786 -265.6491097 122.498821 -259.67382812 116.54345703 C-257.73710444 114.61214044 -255.80584276 112.67547546 -253.875 110.73828125 C-252.64094591 109.50488717 -251.40658208 108.27180289 -250.171875 107.0390625 C-249.30934113 106.17349228 -249.30934113 106.17349228 -248.42938232 105.29043579 C-241.81423697 98.71406606 -241.81423697 98.71406606 -236.625 98.6875 C-235.87476563 98.67074219 -235.12453125 98.65398437 -234.3515625 98.63671875 C-228.50479066 99.53995759 -224.62089614 104.10204801 -220.64916992 108.1237793 C-220.03396484 108.73869232 -219.41875977 109.35360535 -218.78491211 109.9871521 C-216.76198475 112.01146765 -214.74622521 114.04276464 -212.73046875 116.07421875 C-211.3255766 117.48284283 -209.9202409 118.89102466 -208.51448059 120.29878235 C-204.82263529 123.99824984 -201.13683667 127.70368493 -197.45227051 131.41040039 C-193.68861493 135.1945448 -189.91926423 138.97300692 -186.15039062 142.75195312 C-178.76134619 150.16242253 -171.37867805 157.57920964 -164 165 C-162.88530787 164.05684073 -161.77236733 163.1116111 -160.66015625 162.16552734 C-160.04019775 161.63937836 -159.42023926 161.11322937 -158.78149414 160.57113647 C-156.33357882 158.4122694 -154.17434371 156.05719858 -152 153.625 C-151.05831633 152.57980507 -150.11554477 151.5355896 -149.171875 150.4921875 C-148.66849609 149.93499023 -148.16511719 149.37779297 -147.64648438 148.80371094 C-143.94581226 144.74965317 -140.16195892 140.77191664 -136.390625 136.78369141 C-133.37075629 133.57752153 -130.40347801 130.34152313 -127.515625 127.015625 C-123.34649562 122.215871 -118.97688528 117.61477374 -114.60546875 113 C-110.88086169 109.05176229 -107.25941765 105.03608681 -103.70117188 100.9375 C-100.51643281 97.3103345 -97.19708524 93.80857259 -93.89453125 90.2890625 C-91.06239168 87.25805598 -88.28213305 84.19512569 -85.5625 81.0625 C-81.37532294 76.24933302 -76.99200633 71.63073657 -72.60546875 67 C-68.89921572 63.07121833 -65.29899412 59.07383231 -61.75878906 54.99511719 C-58.18422586 50.94024067 -54.44004691 47.04067579 -50.72265625 43.1171875 C-49.82740234 42.16585937 -49.82740234 42.16585937 -48.9140625 41.1953125 C-48.3773291 40.62828613 -47.8405957 40.06125977 -47.28759766 39.47705078 C-45.90116113 38.01118021 -45.90116113 38.01118021 -45 36 C-44.34 36 -43.68 36 -43 36 C-42.73574219 35.40703125 -42.47148437 34.8140625 -42.19921875 34.203125 C-40.95629575 31.91970946 -39.69598354 30.52573277 -37.8125 28.75 C-35.36401744 26.37176079 -33.03928947 23.96200541 -30.8125 21.375 C-27.55288401 17.59680874 -24.19670116 13.91626058 -20.8125 10.25 C-20.30114502 9.69489746 -19.78979004 9.13979492 -19.26293945 8.56787109 C-17.84872478 7.03875292 -16.42627177 5.51786721 -15 4 C-14.28199219 3.23171875 -13.56398438 2.4634375 -12.82421875 1.671875 C-9.02308208 -1.81182199 -4.69301436 -1.28708511 0 0 Z " fill="#221E1F" transform="translate(370,125)"/>
<path d="M0 0 C-0.33 0.66 -0.66 1.32 -1 2 C-1.90621094 1.40832031 -2.81242188 0.81664062 -3.74609375 0.20703125 C-10.37582105 -4.10293055 -16.98018107 -8.34615103 -24 -12 C-25.06476563 -12.56976562 -26.12953125 -13.13953125 -27.2265625 -13.7265625 C-43.00990547 -22.01260666 -59.69074482 -28.81206629 -76.875 -33.5625 C-77.73496582 -33.80178223 -78.59493164 -34.04106445 -79.48095703 -34.28759766 C-84.94413857 -35.70995816 -90.21335212 -36.37915491 -95.85205078 -36.67163086 C-96.56087402 -36.77999268 -97.26969727 -36.88835449 -98 -37 C-98.495 -37.99 -98.495 -37.99 -99 -39 C-101.49974966 -39.41034319 -103.90636437 -39.6867989 -106.42578125 -39.88671875 C-107.19216415 -39.95339249 -107.95854706 -40.02006622 -108.74815369 -40.08876038 C-111.26872436 -40.30154415 -113.79019617 -40.49641458 -116.3125 -40.6875 C-117.17057251 -40.75481323 -118.02864502 -40.82212646 -118.91271973 -40.89147949 C-134.38744765 -42.08239872 -149.50419962 -42.00520143 -165 -41 C-166.90608315 -40.89661598 -168.81233067 -40.79620617 -170.71875 -40.69921875 C-174.81413292 -40.48884475 -178.90712819 -40.25445102 -183 -40 C-138.8414045 -69.43906366 -35.2496819 -27.09981198 0 0 Z " fill="#0F0C0D" transform="translate(393,44)"/>
<path d="M0 0 C0.99 0.495 0.99 0.495 2 1 C-4.66187976 8.76437395 -11.64620537 16.22860286 -18.60253906 23.72753906 C-20.17341913 25.42170095 -21.74297976 27.1170784 -23.3125 28.8125 C-24.01282349 29.56599731 -24.01282349 29.56599731 -24.72729492 30.3347168 C-27.31905617 33.13465898 -29.85537192 35.9732456 -32.35546875 38.85546875 C-36.77128535 43.9232446 -41.40820772 48.7741495 -46.0390625 53.64453125 C-49.87278703 57.69288515 -53.60108156 61.80564761 -57.25390625 66.01757812 C-60.85941303 70.11107856 -64.64362934 74.04028499 -68.39453125 78 C-72.18075917 82.01355837 -75.86111813 86.09182478 -79.44555664 90.28710938 C-81.42940057 92.47317016 -83.61600469 94.26618523 -86 96 C-84.64327863 92.93233936 -83.1372507 90.96343247 -80.6875 88.6875 C-77.76705187 85.86379549 -75.4632365 82.97345885 -73.18359375 79.625 C-71.38514181 77.15583827 -69.18345359 75.1274676 -67 73 C-66.34 72.175 -65.68 71.35 -65 70.5 C-62.82768896 67.7846112 -60.55776223 65.35583364 -58 63 C-57.34 63 -56.68 63 -56 63 C-55.61714844 62.12214844 -55.61714844 62.12214844 -55.2265625 61.2265625 C-53.88462586 58.79056287 -52.4012616 57.2678452 -50.375 55.375 C-48.49424248 53.66170213 -48.49424248 53.66170213 -47 52 C-47 51.34 -47 50.68 -47 50 C-46.01 50 -45.02 50 -44 50 C-43.773125 49.46375 -43.54625 48.9275 -43.3125 48.375 C-41.02823352 44.24156541 -38.20908666 40.93704216 -34.5 38.0625 C-32.22341171 36.18431466 -30.95274333 34.65023878 -29.3125 32.25 C-28.549375 31.1775 -27.78625 30.105 -27 29 C-26.34 29 -25.68 29 -25 29 C-24.505 27.515 -24.505 27.515 -24 26 C-23.34 26 -22.68 26 -22 26 C-21.62875 25.15695312 -21.62875 25.15695312 -21.25 24.296875 C-19.78725133 21.60907431 -18.03195127 19.53594518 -16 17.25 C-15.29875 16.45078125 -14.5975 15.6515625 -13.875 14.828125 C-12 13 -12 13 -10 13 C-9.62875 12.1646875 -9.62875 12.1646875 -9.25 11.3125 C-7.12086052 7.37359196 -5.32917913 4.44305971 -1 3 C-0.67 2.01 -0.34 1.02 0 0 Z " fill="#0F0D0E" transform="translate(341,242)"/>
<path d="M0 0 C4.75991185 2.4520758 8.57829431 5.90775833 12 10 C12 10.66 12 11.32 12 12 C12.99 12.33 13.98 12.66 15 13 C15 13.66 15 14.32 15 15 C15.66 15 16.32 15 17 15 C17 15.66 17 16.32 17 17 C17.99 17.33 18.98 17.66 20 18 C21.50341797 19.5246582 21.50341797 19.5246582 23.1171875 21.48828125 C27.20987754 26.31111752 31.63037695 30.74132645 36.125 35.1875 C36.91003906 35.96802734 37.69507813 36.74855469 38.50390625 37.55273438 C39.96513162 39.00533531 41.42739326 40.45689526 42.89111328 41.90698242 C45.26706438 44.26505475 47.63393096 46.63201028 50 49 C51.16832769 50.16842361 52.33670752 51.33679509 53.50512695 52.50512695 C63.00341797 62.00341797 72.50170898 71.50170898 82 81 C81.67 81.66 81.34 82.32 81 83 C70.82400506 72.87067355 60.65376741 62.73559809 50.4901886 52.59381294 C45.77116062 47.8852424 41.05028535 43.17856202 36.32519531 38.47607422 C31.76917723 33.94171469 27.21799756 29.4025514 22.67019653 24.85995102 C20.930319 23.12378184 19.18867617 21.38937995 17.44528198 19.6567421 C15.01227302 17.23815509 12.58549762 14.81347946 10.16015625 12.38720703 C9.43079865 11.66503998 8.70144104 10.94287292 7.94998169 10.19882202 C6.96552567 9.210242 6.96552567 9.210242 5.96118164 8.20169067 C5.09838341 7.34165782 5.09838341 7.34165782 4.21815491 6.46425056 C3 5 3 5 3 3 C2.01 2.67 1.02 2.34 0 2 C0 1.34 0 0.68 0 0 Z " fill="#0F0D0D" transform="translate(101,280)"/>
<path d="M0 0 C3.65846974 2.14154326 6.31172044 4.21660512 9 7.5 C12.39509728 11.543599 16.1907388 14.9462646 20.1875 18.375 C20.79400391 18.89900391 21.40050781 19.42300781 22.02539062 19.96289062 C24.92920464 22.42391311 27.58026292 24.31576118 31 26 C31.59941406 26.60328125 32.19882813 27.2065625 32.81640625 27.828125 C35.57943129 30.57632164 38.68974686 32.62991587 41.9375 34.75 C42.92024902 35.39654541 42.92024902 35.39654541 43.92285156 36.05615234 C45.94337041 37.3789836 47.97018184 38.69148958 50 40 C50.95060303 40.61439941 50.95060303 40.61439941 51.92041016 41.24121094 C53.6908536 42.3791194 55.46826971 43.50486527 57.25 44.625 C58.28640625 45.27726562 59.3228125 45.92953125 60.390625 46.6015625 C62.94728675 48.23618393 62.94728675 48.23618393 66 48 C66.40734375 48.4228125 66.8146875 48.845625 67.234375 49.28125 C69.82696408 51.80500929 72.9894542 53.03881607 76.25 54.5 C76.89324219 54.79519531 77.53648437 55.09039062 78.19921875 55.39453125 C82.43777938 57.33045331 86.711432 59.17791412 91 61 C88.37044988 62.00683228 87.19802738 62.06665734 84.48901367 61.15478516 C83.55806885 60.70409668 82.62712402 60.2534082 81.66796875 59.7890625 C80.62962891 59.29083984 79.59128906 58.79261719 78.52148438 58.27929688 C77.42126953 57.73337891 76.32105469 57.18746094 75.1875 56.625 C74.05763672 56.07134766 72.92777344 55.51769531 71.76367188 54.94726562 C46.78227622 42.56393769 25.09615579 26.25560965 5 7 C4.48518066 6.5157959 3.97036133 6.0315918 3.43994141 5.53271484 C2.2542158 4.39450162 1.12093678 3.20207125 0 2 C0 1.34 0 0.68 0 0 Z " fill="#110F10" transform="translate(67,420)"/>
<path d="M0 0 C5.61772278 0.49902697 11.1601233 1.14973477 16.71826172 2.10449219 C36.72971519 5.48072158 56.8063839 5.30346082 77 4 C77.495 4.99 77.495 4.99 78 6 C69.50249904 7.00104734 61.05342746 7.15521352 52.51049805 7.13037109 C50.30575773 7.12498352 48.10121877 7.13036294 45.89648438 7.13671875 C44.46874956 7.13605827 43.04101487 7.13477772 41.61328125 7.1328125 C40.34266846 7.13168457 39.07205566 7.13055664 37.76293945 7.12939453 C33.7704157 6.99210539 29.95689136 6.53527065 26 6 C24.10607994 5.89437281 22.20931274 5.82634535 20.3125 5.8125 C19.42175781 5.79832031 18.53101563 5.78414063 17.61328125 5.76953125 C14.75264482 6.02181458 12.601502 6.81409008 10 8 C9.34 7.34 8.68 6.68 8 6 C8.33 5.34 8.66 4.68 9 4 C6.03 3.01 3.06 2.02 0 1 C0 0.67 0 0.34 0 0 Z " fill="#0F0D0E" transform="translate(197,471)"/>
<path d="M0 0 C5.14699276 -0.30276428 7.78391945 0.07185093 12 3 C13.73367318 4.56427903 15.418785 6.18322316 17.06567383 7.83862305 C17.54432892 8.31698608 18.02298401 8.79534912 18.5161438 9.28820801 C20.08456532 10.85801402 21.64579804 12.43476631 23.20703125 14.01171875 C24.29803912 15.10645988 25.38949172 16.20075797 26.48136902 17.29463196 C29.34465234 20.16552705 32.20187667 23.04237874 35.05786133 25.92053223 C37.9769809 28.86016322 40.90181768 31.79409365 43.82617188 34.72851562 C49.55637742 40.48012774 55.28019165 46.23804816 61 52 C60.34 52.66 59.68 53.32 59 54 C55.54586752 50.64745966 52.39332457 47.1686789 49.33203125 43.453125 C48.0420309 41.87220817 48.0420309 41.87220817 46 41 C46 40.34 46 39.68 46 39 C45.34 39 44.68 39 44 39 C42.66796875 37.64453125 42.66796875 37.64453125 41.1875 35.8125 C37.92984598 31.89066409 34.6183561 28.24488931 30.5625 25.125 C27.83589045 22.86390915 25.72246339 20.42579803 23.45703125 17.71875 C21.43066699 15.32840074 19.26835156 13.16284684 17 11 C16.3296875 10.33484375 15.659375 9.6696875 14.96875 8.984375 C10.10623868 4.35499779 6.68046257 1.97170365 0 1 C0 0.67 0 0.34 0 0 Z " fill="#171415" transform="translate(131,224)"/>
<path d="M0 0 C3.80049545 0.57739954 5.66486123 2.21753454 8.4375 4.8125 C9.31664062 5.6271875 10.19578125 6.441875 11.1015625 7.28125 C12.05804688 8.1784375 13.01453125 9.075625 14 10 C15.02754419 10.94911074 16.05621799 11.89699977 17.0859375 12.84375 C19.26196171 14.84452394 21.43352832 16.84994627 23.6015625 18.859375 C25.94122331 21.02597994 28.29122206 23.18063517 30.6484375 25.328125 C31.24100342 25.86977295 31.83356934 26.4114209 32.4440918 26.96948242 C33.58130458 28.00859647 34.72069368 29.0453352 35.86254883 30.0793457 C41.67877892 35.40624927 41.67877892 35.40624927 42.40625 39.015625 C42.60591986 43.77442338 42.1711692 46.39022624 39 50.0625 C38.02061634 51.06228748 37.02711118 52.04931078 36 53 C35.34 52.34 34.68 51.68 34 51 C34.804375 50.505 35.60875 50.01 36.4375 49.5 C39.40633186 46.60357868 39.76518378 45.13697549 40.34765625 41.1953125 C39.41202035 35.28713975 34.4037356 31.21507387 30.125 27.4375 C29.62097656 26.98181641 29.11695313 26.52613281 28.59765625 26.05664062 C25.99587051 23.71769514 23.34743029 21.4727172 20.6171875 19.28515625 C19.75351562 18.53105469 18.88984375 17.77695313 18 17 C18 16.34 18 15.68 18 15 C17.195625 14.6596875 17.195625 14.6596875 16.375 14.3125 C11.20169282 11.45356708 7.09352525 7.20416106 3 3 C2.401875 2.401875 1.80375 1.80375 1.1875 1.1875 C0.795625 0.795625 0.40375 0.40375 0 0 Z " fill="#110F10" transform="translate(367,125)"/>
<path d="M0 0 C0 3 0 3 -1.28515625 4.54296875 C-1.87167969 5.08566406 -2.45820313 5.62835938 -3.0625 6.1875 C-6.4105264 9.37286925 -9.38858447 12.73458113 -12.32421875 16.30078125 C-15.12599641 19.14174461 -17.36625916 19.92825575 -21.3125 20.375 C-28.53200363 19.64081319 -32.7979761 15.53522406 -37.71484375 10.5859375 C-39 9 -39 9 -39 7 C-39.66 7 -40.32 7 -41 7 C-41.66 5.68 -42.32 4.36 -43 3 C-42.01 3.33 -41.02 3.66 -40 4 C-40 4.66 -40 5.32 -40 6 C-39.01 6.33 -38.02 6.66 -37 7 C-34.3125 9.4375 -34.3125 9.4375 -32 12 C-32 12.66 -32 13.32 -32 14 C-31.4225 14.28875 -30.845 14.5775 -30.25 14.875 C-28 16 -28 16 -26.140625 17.10546875 C-22.33315641 18.69654595 -18.72077596 17.48693993 -15 16 C-12.56822967 13.52656069 -12.56822967 13.52656069 -11 11 C-10.34 11 -9.68 11 -9 11 C-8.74476563 10.41734375 -8.48953125 9.8346875 -8.2265625 9.234375 C-6.88258913 6.78611777 -5.38189704 5.18256752 -3.375 3.25 C-2.74335938 2.63640625 -2.11171875 2.0228125 -1.4609375 1.390625 C-0.73777344 0.70226562 -0.73777344 0.70226562 0 0 Z " fill="#131011" transform="translate(230,364)"/>
<path d="M0 0 C0.33 0 0.66 0 1 0 C1 1.98 1 3.96 1 6 C1.66 6.33 2.32 6.66 3 7 C3.23828125 8.94921875 3.23828125 8.94921875 3.3125 11.6875 C3.84396004 20.0003372 5.91888641 27.9410073 7.84375 36.0234375 C8.70994617 39.66663681 9.45439126 43.29234063 10 47 C8 46 8 46 7.26977539 43.89306641 C6.93707642 42.51127197 6.93707642 42.51127197 6.59765625 41.1015625 C6.34830322 40.07297119 6.0989502 39.04437988 5.84204102 37.98461914 C5.58479248 36.87594482 5.32754395 35.76727051 5.0625 34.625 C4.66599243 32.94168579 4.66599243 32.94168579 4.26147461 31.22436523 C2.64328997 24.20392576 1.20294369 17.17646326 0.0625 10.0625 C-0.06568115 9.27117676 -0.1938623 8.47985352 -0.32592773 7.66455078 C-1.1305942 2.2611884 -1.1305942 2.2611884 0 0 Z " fill="#0F0D0E" transform="translate(2,278)"/>
<path d="M0 0 C3.1318614 1.40092426 5.37018951 3.06663664 7.86328125 5.4140625 C8.58580078 6.09339844 9.30832031 6.77273437 10.05273438 7.47265625 C10.79845703 8.18292969 11.54417969 8.89320312 12.3125 9.625 C13.04662109 10.31207031 13.78074219 10.99914062 14.53710938 11.70703125 C27.24115146 23.72345437 27.24115146 23.72345437 29 29 C24.51321775 27.50440592 22.80367156 24.05501298 20.03515625 20.34765625 C18.02096831 18.02418801 16.71340626 17.26987413 14 16 C12.32421875 14.30078125 12.32421875 14.30078125 10.6875 12.3125 C7.7199141 8.79250634 4.5972664 5.54329659 1.28515625 2.34765625 C0 1 0 1 0 0 Z " fill="#0F0C0E" transform="translate(411,59)"/>
<path d="M0 0 C0.66 0.33 1.32 0.66 2 1 C-3.01929272 6.87713548 -8.25678691 12.53813471 -13.55541992 18.16259766 C-14.10045166 18.74444824 -14.6454834 19.32629883 -15.20703125 19.92578125 C-15.6966333 20.44567627 -16.18623535 20.96557129 -16.69067383 21.5012207 C-18.21136288 23.1765739 -18.21136288 23.1765739 -20 26 C-20.66 26 -21.32 26 -22 26 C-22.33 26.99 -22.66 27.98 -23 29 C-23.66 29 -24.32 29 -25 29 C-23.5158627 25.51345524 -21.53785948 23.35808928 -18.8125 20.75 C-14.64131434 16.6722489 -10.78873121 12.43030126 -7 8 C-5.68914172 6.49856508 -4.37667724 4.99853076 -3.0625 3.5 C-2.47597656 2.8296875 -1.88945312 2.159375 -1.28515625 1.46875 C-0.86105469 0.9840625 -0.43695313 0.499375 0 0 Z " fill="#161415" transform="translate(265,227)"/>
<path d="M0 0 C4.09100377 1.52943489 6.22160686 4.42101865 8.75 7.8125 C9.18030518 8.38202393 9.61061035 8.95154785 10.05395508 9.53833008 C14.40601362 15.39159621 18.71456697 21.47846477 22 28 C21.67 28.66 21.34 29.32 21 30 C20.31224487 29.00987915 20.31224487 29.00987915 19.6105957 27.99975586 C17.51170333 24.97867507 15.41210734 21.95808393 13.3125 18.9375 C12.59126953 17.89916016 11.87003906 16.86082031 11.12695312 15.79101562 C7.45068226 10.50322876 3.76010301 5.2285456 0 0 Z " fill="#0E0B0C" transform="translate(443,93)"/>
<path d="M0 0 C0.66 0.33 1.32 0.66 2 1 C-2.6074661 6.42156725 -7.41237438 11.65945433 -12.25 16.875 C-13.17159912 17.87478882 -13.17159912 17.87478882 -14.11181641 18.89477539 C-14.99232666 19.84018188 -14.99232666 19.84018188 -15.890625 20.8046875 C-16.41688477 21.37171387 -16.94314453 21.93874023 -17.48535156 22.52294922 C-19 24 -19 24 -22 26 C-20.56438314 22.81293058 -18.79733671 20.37830895 -16.5 17.75 C-15.8915625 17.04359375 -15.283125 16.3371875 -14.65625 15.609375 C-13 14 -13 14 -11 14 C-10.7421875 13.41347656 -10.484375 12.82695312 -10.21875 12.22265625 C-8.90493528 9.82662877 -7.4781599 8.31088448 -5.5 6.4375 C-3.27903267 4.32475777 -1.72257583 2.58386374 0 0 Z " fill="#110F10" transform="translate(253,338)"/>
<path d="M0 0 C0.66 0 1.32 0 2 0 C4.97 8.25 7.94 16.5 11 25 C10.34 25.66 9.68 26.32 9 27 C7.49485354 22.87685942 5.99675628 18.75119298 4.5 14.625 C4.07074219 13.449375 3.64148438 12.27375 3.19921875 11.0625 C2.79316406 9.94101563 2.38710938 8.81953125 1.96875 7.6640625 C1.59169922 6.62717285 1.21464844 5.5902832 0.82617188 4.52197266 C0 2 0 2 0 0 Z " fill="#100D0E" transform="translate(479,152)"/>
<path d="M0 0 C0.66 0.33 1.32 0.66 2 1 C1.3709375 1.556875 0.741875 2.11375 0.09375 2.6875 C-10.07124363 10.66144895 -10.07124363 10.66144895 -17 21 C-18.32 20.67 -19.64 20.34 -21 20 C-17.87904935 16.85012694 -14.75257094 13.70579867 -11.625 10.5625 C-10.73554687 9.66466797 -9.84609375 8.76683594 -8.9296875 7.84179688 C-7.65351562 6.56079102 -7.65351562 6.56079102 -6.3515625 5.25390625 C-5.56604004 4.46314697 -4.78051758 3.6723877 -3.97119141 2.85766602 C-2 1 -2 1 0 0 Z " fill="#141213" transform="translate(128,225)"/>
<path d="M0 0 C2.67132544 0.9646453 4.78349887 1.82409283 7 3.625 C9.48753895 5.33518303 11.04397282 5.2463356 14 5 C14.2475 5.721875 14.495 6.44375 14.75 7.1875 C16.10983674 10.24713266 17.82917754 12.4673738 20 15 C16.29534445 13.34359151 13.23513465 11.05943882 10 8.625 C8.96875 7.85414062 7.9375 7.08328125 6.875 6.2890625 C4.39492259 4.31443565 2.17992314 2.29520754 0 0 Z " fill="#171416" transform="translate(376,61)"/>
<path d="M0 0 C0.66 0 1.32 0 2 0 C0.34603155 6.16611046 -1.72876935 12.12602832 -4.0625 18.0625 C-4.3198291 18.72967041 -4.5771582 19.39684082 -4.84228516 20.08422852 C-6.76074219 24.88037109 -6.76074219 24.88037109 -9 26 C-8.35767994 23.29321431 -7.58820812 20.68846512 -6.66015625 18.06640625 C-6.40169922 17.33486328 -6.14324219 16.60332031 -5.87695312 15.84960938 C-5.60818359 15.09486328 -5.33941406 14.34011719 -5.0625 13.5625 C-4.79759766 12.81162109 -4.53269531 12.06074219 -4.25976562 11.28710938 C-2.91453509 7.49175672 -1.53286151 3.72477942 0 0 Z " fill="#131112" transform="translate(487,325)"/>
<path d="M0 0 C0.66 0.33 1.32 0.66 2 1 C1.67 1.99 1.34 2.98 1 4 C0.34 4 -0.32 4 -1 4 C-1.66 6.31 -2.32 8.62 -3 11 C-3.66 11 -4.32 11 -5 11 C-5.226875 11.639375 -5.45375 12.27875 -5.6875 12.9375 C-7.48565826 17.13320261 -9.73904021 21.03900556 -12 25 C-12.33 24.34 -12.66 23.68 -13 23 C-12.35083008 21.30761719 -12.35083008 21.30761719 -11.26953125 19.296875 C-10.87830078 18.56339844 -10.48707031 17.82992187 -10.08398438 17.07421875 C-9.66439453 16.30722656 -9.24480469 15.54023438 -8.8125 14.75 C-8.21211914 13.62271484 -8.21211914 13.62271484 -7.59960938 12.47265625 C-5.27258559 8.15050187 -2.79499592 4.03507457 0 0 Z " fill="#131111" transform="translate(39,114)"/>
<path d="M0 0 C1.6045556 0.14148989 3.20863767 0.28835686 4.8125 0.4375 C5.70582031 0.51871094 6.59914062 0.59992188 7.51953125 0.68359375 C10 1 10 1 13 2 C13 2.66 13 3.32 13 4 C14.32 4 15.64 4 17 4 C17 4.66 17 5.32 17 6 C14.69 6.66 12.38 7.32 10 8 C9.34 7.34 8.68 6.68 8 6 C8.33 5.34 8.66 4.68 9 4 C6.03 3.01 3.06 2.02 0 1 C0 0.67 0 0.34 0 0 Z " fill="#1A1718" transform="translate(197,471)"/>
<path d="M0 0 C0.66 0.33 1.32 0.66 2 1 C0.69345966 4.52765892 -1.36760472 6.15623047 -4.27734375 8.4296875 C-7.10904034 11.01096194 -9.24360639 14.11335747 -11.484375 17.20703125 C-11.98453125 17.79871094 -12.4846875 18.39039063 -13 19 C-13.66 19 -14.32 19 -15 19 C-13.35575077 14.93831292 -10.46975146 12.06456388 -7.5 8.9375 C-4.78869481 6.06155483 -2.20153517 3.30230276 0 0 Z " fill="#161415" transform="translate(283,207)"/>
<path d="M0 0 C0.99 0.33 1.98 0.66 3 1 C3 1.66 3 2.32 3 3 C3.99 3.33 4.98 3.66 6 4 C8.6875 6.4375 8.6875 6.4375 11 9 C11 9.66 11 10.32 11 11 C11.5775 11.268125 12.155 11.53625 12.75 11.8125 C15.0325868 13.01719859 16.9737942 14.40798115 19 16 C14.96443369 15.47178451 12.82287252 14.40673398 9.8125 11.6875 C9.13832031 11.09324219 8.46414062 10.49898438 7.76953125 9.88671875 C6.01054621 8.01124464 5.01114033 6.34895677 4 4 C3.34 4 2.68 4 2 4 C1.34 2.68 0.68 1.36 0 0 Z " fill="#0C0A0C" transform="translate(187,367)"/>
<path d="M0 0 C0.66 0.33 1.32 0.66 2 1 C-2.46351289 6.22325977 -7.0744893 11.20922972 -12 16 C-12.33 15.34 -12.66 14.68 -13 14 C-12.2575 13.278125 -11.515 12.55625 -10.75 11.8125 C-7.98732731 9.09288953 -7.98732731 9.09288953 -5.8125 6.1875 C-5.214375 5.465625 -4.61625 4.74375 -4 4 C-3.34 4 -2.68 4 -2 4 C-1.34 2.68 -0.68 1.36 0 0 Z " fill="#110F10" transform="translate(378,202)"/>
<path d="M0 0 C0.66 0.66 1.32 1.32 2 2 C0.06891037 3.03290841 -1.870118 4.05098672 -3.8125 5.0625 C-4.89144531 5.63097656 -5.97039062 6.19945312 -7.08203125 6.78515625 C-10 8 -10 8 -13 7 C-12.34 7 -11.68 7 -11 7 C-10.67 5.68 -10.34 4.36 -10 3 C-8.63875 2.814375 -8.63875 2.814375 -7.25 2.625 C-4.41029677 2.07890323 -2.47409409 1.42736197 0 0 Z " fill="#1A1718" transform="translate(157,41)"/>
<path d="M0 0 C-1.870713 1.13211434 -3.74678191 2.25538095 -5.625 3.375 C-7.19121094 4.31472656 -7.19121094 4.31472656 -8.7890625 5.2734375 C-11.82241736 6.90451153 -14.70622076 8.02076833 -18 9 C-18 8.34 -18 7.68 -18 7 C-15.56876731 5.63336613 -13.13113837 4.2816133 -10.6875 2.9375 C-9.99720703 2.54755859 -9.30691406 2.15761719 -8.59570312 1.75585938 C-3.33984375 -1.11328125 -3.33984375 -1.11328125 0 0 Z " fill="#151314" transform="translate(142,26)"/>
<path d="M0 0 C4.66666667 0.66666667 9.33333333 1.33333333 14 2 C14 2.66 14 3.32 14 4 C15.32 4 16.64 4 18 4 C18 4.66 18 5.32 18 6 C15.18494942 5.38504727 12.37335056 4.75862099 9.5625 4.125 C8.76005859 3.95097656 7.95761719 3.77695312 7.13085938 3.59765625 C5.0717622 3.12849487 3.03341657 2.57027241 1 2 C0.67 1.34 0.34 0.68 0 0 Z " fill="#141112" transform="translate(179,489)"/>
<path d="M0 0 C2.72675159 2.40689803 4.11966596 4.92471023 5.6875 8.1875 C6.12449219 9.08855469 6.56148438 9.98960937 7.01171875 10.91796875 C7.33785156 11.60503906 7.66398437 12.29210937 8 13 C5.69 12.34 3.38 11.68 1 11 C1.20625 10.29875 1.4125 9.5975 1.625 8.875 C2.07850357 5.39813928 1.27540277 3.22601877 0 0 Z " fill="#141213" transform="translate(465,123)"/>
<path d="M0 0 C4.20240011 3.71750779 6.99782679 8.31660979 10 13 C9.67 13.66 9.34 14.32 9 15 C7.1875 14.5 7.1875 14.5 5 13 C3.72120186 10.42504448 2.88261663 7.73141122 2 5 C1.33933281 3.33094605 0.67561748 1.6630584 0 0 Z " fill="#171515" transform="translate(56,368)"/>
<path d="M0 0 C0.66 0 1.32 0 2 0 C-0.55294132 6.67692346 -3.76408552 12.27579124 -8 18 C-8 13.81321806 -5.97458921 10.88477203 -4 7.3125 C-3.6184375 6.61060547 -3.236875 5.90871094 -2.84375 5.18554688 C-1.90140478 3.45398753 -0.95142732 1.72658574 0 0 Z " fill="#171515" transform="translate(451,353)"/>
<path d="M0 0 C-1.56096761 3.83146596 -3.91411305 6.28148054 -7 9 C-9.1640625 9.64453125 -9.1640625 9.64453125 -11 10 C-10.06409496 8.8944811 -9.12620142 7.79064547 -8.1875 6.6875 C-7.66542969 6.07261719 -7.14335937 5.45773437 -6.60546875 4.82421875 C-2.35974304 0 -2.35974304 0 0 0 Z " fill="#191617" transform="translate(409,412)"/>
<path d="M0 0 C-5 5 -5 5 -6.9453125 5.1953125 C-8.96354167 5.13020833 -10.98177083 5.06510417 -13 5 C-9.76220634 1.00037254 -4.97776602 -1.65925534 0 0 Z " fill="#171516" transform="translate(160,18)"/>
<path d="M0 0 C0.66 0 1.32 0 2 0 C4.38171031 3.80273074 4.65510945 7.89003197 5.125 12.25 C5.21136719 12.99507812 5.29773438 13.74015625 5.38671875 14.5078125 C5.59786867 16.33777846 5.79984545 18.16879879 6 20 C4.21403811 17.32105716 3.60830822 15.9968331 2.9296875 12.98828125 C2.75566406 12.23095703 2.58164062 11.47363281 2.40234375 10.69335938 C2.14130859 9.51483398 2.14130859 9.51483398 1.875 8.3125 C1.60236328 7.11657227 1.60236328 7.11657227 1.32421875 5.89648438 C0.87726573 3.93224349 0.43789584 1.96627986 0 0 Z " fill="#121011" transform="translate(468,190)"/>
<path d="M0 0 C2.25 0.875 2.25 0.875 4 2 C4.33 1.34 4.66 0.68 5 0 C5 0.66 5 1.32 5 2 C6.65 2.33 8.3 2.66 10 3 C10 3.66 10 4.32 10 5 C5.38 4.01 0.76 3.02 -4 2 C-2.68 1.34 -1.36 0.68 0 0 Z " fill="#191718" transform="translate(294,25)"/>
<path d="M0 0 C2 1 2 1 2 1 Z M-2 1 C-1.34 1.33 -0.68 1.66 0 2 C-1.15173355 4.46800047 -2.04783565 6.04783565 -4 8 C-4 7.34 -4 6.68 -4 6 C-5.98 6.66 -7.96 7.32 -10 8 C-10 7.34 -10 6.68 -10 6 C-8.3203125 4.67578125 -8.3203125 4.67578125 -6.125 3.3125 C-5.40570313 2.85488281 -4.68640625 2.39726562 -3.9453125 1.92578125 C-3.30335938 1.62027344 -2.66140625 1.31476563 -2 1 Z " fill="#191718" transform="translate(374,439)"/>
<path d="M0 0 C0.66 0.33 1.32 0.66 2 1 C0.84906278 4.45281166 -0.3205993 5.38082163 -3.0625 7.6875 C-3.79597656 8.31011719 -4.52945312 8.93273437 -5.28515625 9.57421875 C-5.85105469 10.04472656 -6.41695313 10.51523438 -7 11 C-7.66 10.67 -8.32 10.34 -9 10 C-8.43410156 9.44570312 -7.86820312 8.89140625 -7.28515625 8.3203125 C-6.55167969 7.59585938 -5.81820313 6.87140625 -5.0625 6.125 C-4.33160156 5.40570313 -3.60070312 4.68640625 -2.84765625 3.9453125 C-0.94332001 2.12972808 -0.94332001 2.12972808 0 0 Z " fill="#181618" transform="translate(325,161)"/>
<path d="M0 0 C0 0.66 0 1.32 0 2 C-6.435 4.97 -6.435 4.97 -13 8 C-13 7.34 -13 6.68 -13 6 C-9.60013373 2.87212303 -4.69093663 0 0 0 Z " fill="#151314" transform="translate(367,470)"/>
<path d="M0 0 C-2.1875 2.0625 -2.1875 2.0625 -5 4 C-7.8125 3.75 -7.8125 3.75 -10 3 C-10 2.34 -10 1.68 -10 1 C-3.71428571 -1.42857143 -3.71428571 -1.42857143 0 0 Z " fill="#1B1719" transform="translate(330,464)"/>
<path d="M0 0 C5.70709064 0.46588495 9.15939723 1.93757784 14 5 C10.22134307 6.25955231 8.96588214 5.48087189 5.3125 4.0625 C4.31863281 3.68222656 3.32476562 3.30195312 2.30078125 2.91015625 C1.54152344 2.60980469 0.78226562 2.30945312 0 2 C0 1.34 0 0.68 0 0 Z " fill="#171314" transform="translate(328,36)"/>
<path d="M0 0 C0 0.99 0 1.98 0 3 C-1.96875 4.60546875 -1.96875 4.60546875 -4.5 6.1875 C-5.3353125 6.71730469 -6.170625 7.24710937 -7.03125 7.79296875 C-7.6809375 8.19128906 -8.330625 8.58960938 -9 9 C-7.26653013 5.24414862 -4.57230154 0 0 0 Z " fill="#1A1718" transform="translate(421,400)"/>
<path d="M0 0 C0.33 1.32 0.66 2.64 1 4 C-3.5 7 -3.5 7 -8 10 C-6.34908222 5.70761377 -3.26245434 3.1206085 0 0 Z " fill="#1B1819" transform="translate(335,151)"/>
<path d="M0 0 C0 3.52232517 -0.56731481 4.05751328 -2.8125 6.625 C-3.59560547 7.54152344 -3.59560547 7.54152344 -4.39453125 8.4765625 C-6 10 -6 10 -9 11 C-7.59155282 7.78475695 -5.89655214 5.67816132 -3.375 3.25 C-2.74335938 2.63640625 -2.11171875 2.0228125 -1.4609375 1.390625 C-0.73777344 0.70226562 -0.73777344 0.70226562 0 0 Z " fill="#191718" transform="translate(239,256)"/>
<path d="M0 0 C0 3.58912412 -0.66436554 4.10857029 -3 6.6875 C-3.556875 7.31011719 -4.11375 7.93273437 -4.6875 8.57421875 C-5.120625 9.04472656 -5.55375 9.51523438 -6 10 C-6.99 9.67 -7.98 9.34 -9 9 C-6.03 6.03 -3.06 3.06 0 0 Z " fill="#171616" transform="translate(294,196)"/>
<path d="M0 0 C-2 2 -2 2 -4.4375 2.4375 C-7.2640517 3.05796257 -8.19092843 3.81007125 -10 6 C-10 5.01 -10 4.02 -10 3 C-6.62637846 0.39749195 -4.23092172 -0.36265043 0 0 Z " fill="#181617" transform="translate(367,124)"/>
<path d="M0 0 C2.875 -0.1875 2.875 -0.1875 6 0 C6.66 0.99 7.32 1.98 8 3 C4.37673261 4.2077558 3.35853631 3.54311128 0 2 C0 1.34 0 0.68 0 0 Z " fill="#191617" transform="translate(343,42)"/>
<path d="M0 0 C1.65 0 3.3 0 5 0 C3.02 2.31 1.04 4.62 -1 7 C-1.66 6.67 -2.32 6.34 -3 6 C-2.505 5.566875 -2.01 5.13375 -1.5 4.6875 C0.33218192 3.00259517 0.33218192 3.00259517 0 0 Z " fill="#131212" transform="translate(427,422)"/>
<path d="M0 0 C1.01527342 4.06109369 1.05430484 4.66966838 -0.4375 8.25 C-0.72496094 8.95640625 -1.01242188 9.6628125 -1.30859375 10.390625 C-1.53675781 10.92171875 -1.76492188 11.4528125 -2 12 C-2.66 11.34 -3.32 10.68 -4 10 C-2.68 6.7 -1.36 3.4 0 0 Z " fill="#0F0D0E" transform="translate(13,169)"/>
<path d="M0 0 C3.77545388 1.09068668 6.47043472 1.9083091 9 5 C3.46153846 4.50769231 3.46153846 4.50769231 1.125 1.9375 C0.75375 1.298125 0.3825 0.65875 0 0 Z " fill="#161415" transform="translate(144,451)"/>
<path d="M0 0 C0.66 0.33 1.32 0.66 2 1 C-1.625 6.75 -1.625 6.75 -5 9 C-3.7508258 5.54074837 -2.32472205 2.85306797 0 0 Z " fill="#171516" transform="translate(436,378)"/>
<path d="M0 0 C1.43088528 2.86177057 0.59991697 4.93375773 0 8 C-0.66 8 -1.32 8 -2 8 C-2.33 8.66 -2.66 9.32 -3 10 C-2.69201674 8.51988629 -2.378482 7.04092675 -2.0625 5.5625 C-1.88847656 4.73878906 -1.71445312 3.91507812 -1.53515625 3.06640625 C-1 1 -1 1 0 0 Z " fill="#161213" transform="translate(466,319)"/>
<path d="M0 0 C0.99 0.33 1.98 0.66 3 1 C0.69 3.31 -1.62 5.62 -4 8 C-4 4.09161134 -2.49432124 2.88405893 0 0 Z " fill="#181414" transform="translate(84,93)"/>
<path d="M0 0 C3.3 0 6.6 0 10 0 C9.67 0.66 9.34 1.32 9 2 C6.93359375 2.4140625 6.93359375 2.4140625 4.4375 2.625 C3.61121094 2.69976563 2.78492188 2.77453125 1.93359375 2.8515625 C0.97646484 2.92503906 0.97646484 2.92503906 0 3 C0 2.01 0 1.02 0 0 Z " fill="#1B1819" transform="translate(204,25)"/>
</svg>
