<?xml version="1.0" encoding="UTF-8"?>
<svg version="1.1" xmlns="http://www.w3.org/2000/svg" width="500" height="500">
<path d="M0 0 C1.63098633 -0.01879211 1.63098633 -0.01879211 3.29492188 -0.03796387 C26.61987954 -0.25451957 49.10418091 -0.34649917 71.875 5.2734375 C72.81956055 5.49805664 73.76412109 5.72267578 74.73730469 5.95410156 C94.88580263 10.86087862 114.66304391 18.36427037 132.875 28.2734375 C133.52339844 28.61842285 134.17179687 28.9634082 134.83984375 29.31884766 C167.09783625 46.50896208 195.24727999 70.81564663 216.875 100.2734375 C217.45378906 101.05589844 218.03257812 101.83835937 218.62890625 102.64453125 C220.43351636 105.15359157 222.16131731 107.70121 223.875 110.2734375 C224.30538574 110.91458496 224.73577148 111.55573242 225.17919922 112.21630859 C235.30977483 127.41045671 243.60310062 143.35195458 249.8671875 160.5234375 C250.79139435 163.04530427 251.81632124 165.49346575 252.875 167.9609375 C257.15217441 178.67112021 259.75119498 190.06391466 262.0625 201.3359375 C262.2171875 202.0769873 262.371875 202.81803711 262.53125 203.58154297 C265.6007822 219.22614782 266.27937724 234.74506622 266.25 250.6484375 C266.25012085 251.65723969 266.2502417 252.66604187 266.25036621 253.70541382 C266.22283305 269.88418482 265.25067756 285.4034066 261.875 301.2734375 C261.69888184 302.13146973 261.52276367 302.98950195 261.34130859 303.87353516 C259.68445571 311.82611609 257.72359604 319.65653939 254.875 327.2734375 C254.45476562 328.42714844 254.03453125 329.58085937 253.6015625 330.76953125 C252.06660227 334.95327514 250.48093102 339.11647155 248.875 343.2734375 C248.5960791 343.99724609 248.3171582 344.72105469 248.02978516 345.46679688 C244.75534285 353.89160556 241.256524 361.80412745 236.51953125 369.53515625 C234.04618601 373.6534817 231.95287596 377.94532721 229.875 382.2734375 C229.215 382.2734375 228.555 382.2734375 227.875 382.2734375 C227.215 384.2534375 226.555 386.2334375 225.875 388.2734375 C225.215 388.2734375 224.555 388.2734375 223.875 388.2734375 C223.875 389.2634375 223.875 390.2534375 223.875 391.2734375 C223.215 391.2734375 222.555 391.2734375 221.875 391.2734375 C221.66746094 391.94246094 221.45992188 392.61148437 221.24609375 393.30078125 C219.38687729 397.33173203 216.76333629 400.43649014 213.9375 403.8359375 C213.06242798 404.89820557 213.06242798 404.89820557 212.16967773 405.98193359 C206.94545767 412.27715076 201.54784317 418.37673995 195.875 424.2734375 C195.3269873 424.84336426 194.77897461 425.41329102 194.21435547 426.00048828 C186.83760299 433.62429917 179.34890234 440.85901522 170.875 447.2734375 C170.23079102 447.76166992 169.58658203 448.24990234 168.92285156 448.75292969 C149.40331575 463.44841546 128.51598169 475.10660101 105.875 484.2734375 C105.02421875 484.61890625 104.1734375 484.964375 103.296875 485.3203125 C89.41709456 490.64525971 74.51479621 494.75605187 59.875 497.2734375 C59.12202637 497.40878906 58.36905273 497.54414063 57.59326172 497.68359375 C9.01288438 506.09774922 -41.21185253 498.99196983 -86.125 479.2734375 C-86.99624512 478.89429199 -87.86749023 478.51514648 -88.76513672 478.12451172 C-104.96796535 470.99778651 -120.09024147 462.07650821 -134.125 451.2734375 C-135.2696875 450.39945312 -135.2696875 450.39945312 -136.4375 449.5078125 C-138.67991447 447.77928468 -140.90268139 446.02769928 -143.125 444.2734375 C-144.0428125 443.56574219 -144.960625 442.85804688 -145.90625 442.12890625 C-146.8240625 441.41347656 -147.741875 440.69804687 -148.6875 439.9609375 C-149.95787109 438.97673828 -149.95787109 438.97673828 -151.25390625 437.97265625 C-152.18009766 437.13154297 -152.18009766 437.13154297 -153.125 436.2734375 C-153.125 435.6134375 -153.125 434.9534375 -153.125 434.2734375 C-153.785 434.2734375 -154.445 434.2734375 -155.125 434.2734375 C-155.125 433.6134375 -155.125 432.9534375 -155.125 432.2734375 C-155.66640625 432.056875 -156.2078125 431.8403125 -156.765625 431.6171875 C-159.94290394 429.80761141 -162.33365399 427.36082824 -164.875 424.7734375 C-165.66245605 423.97800537 -165.66245605 423.97800537 -166.46582031 423.16650391 C-179.125 410.20149083 -179.125 410.20149083 -179.125 406.2734375 C-179.785 406.2734375 -180.445 406.2734375 -181.125 406.2734375 C-181.785 404.6234375 -182.445 402.9734375 -183.125 401.2734375 C-183.785 401.2734375 -184.445 401.2734375 -185.125 401.2734375 C-186.60546875 399.21875 -186.60546875 399.21875 -188.3125 396.3984375 C-190.66802842 392.58169955 -193.07783953 388.85866292 -195.6875 385.2109375 C-206.89444298 369.27217415 -214.32043921 351.33851464 -221.25 333.2109375 C-221.49186035 332.58630615 -221.7337207 331.9616748 -221.98291016 331.31811523 C-225.48302506 322.02086005 -227.6553111 312.35422298 -229.6875 302.6484375 C-229.89568359 301.69582031 -230.10386719 300.74320312 -230.31835938 299.76171875 C-233.84752723 282.96774757 -234.53233467 266.4501206 -234.5 249.3359375 C-234.49945618 248.25250061 -234.49891235 247.16906372 -234.49835205 246.05279541 C-234.46083902 229.79644892 -233.86715665 214.16235742 -230.125 198.2734375 C-229.88942383 197.25701172 -229.65384766 196.24058594 -229.41113281 195.19335938 C-224.57123255 174.75822493 -217.65901004 155.9049963 -208.11279297 137.22045898 C-207.08232963 135.18933067 -206.07450852 133.1477738 -205.06640625 131.10546875 C-203.54364536 128.05549337 -201.91054686 125.11730318 -200.125 122.2109375 C-197.72328451 118.26700368 -195.39709643 114.29330041 -193.125 110.2734375 C-192.465 110.2734375 -191.805 110.2734375 -191.125 110.2734375 C-190.8775 109.5721875 -190.63 108.8709375 -190.375 108.1484375 C-188.95319762 104.87829202 -187.25253712 102.1323155 -185.125 99.2734375 C-184.465 99.2734375 -183.805 99.2734375 -183.125 99.2734375 C-182.88910156 98.55542969 -182.65320313 97.83742188 -182.41015625 97.09765625 C-180.91286671 93.80726008 -179.03719474 91.7115767 -176.5625 89.0859375 C-173.48314202 85.93154813 -173.48314202 85.93154813 -171.125 82.2734375 C-170.465 82.2734375 -169.805 82.2734375 -169.125 82.2734375 C-169.125 81.6134375 -169.125 80.9534375 -169.125 80.2734375 C-168.465 80.2734375 -167.805 80.2734375 -167.125 80.2734375 C-166.898125 79.72171875 -166.67125 79.17 -166.4375 78.6015625 C-164.73774074 75.58651333 -162.57695184 73.46113381 -160.125 71.0234375 C-159.238125 70.13140625 -158.35125 69.239375 -157.4375 68.3203125 C-155.125 66.2734375 -155.125 66.2734375 -153.125 66.2734375 C-153.125 65.6134375 -153.125 64.9534375 -153.125 64.2734375 C-152.465 64.2734375 -151.805 64.2734375 -151.125 64.2734375 C-151.125 63.6134375 -151.125 62.9534375 -151.125 62.2734375 C-149.13899663 60.9193443 -147.13682457 59.58886126 -145.125 58.2734375 C-144.3825 57.5309375 -143.64 56.7884375 -142.875 56.0234375 C-142.2975 55.4459375 -141.72 54.8684375 -141.125 54.2734375 C-140.465 54.2734375 -139.805 54.2734375 -139.125 54.2734375 C-139.125 53.6134375 -139.125 52.9534375 -139.125 52.2734375 C-137.805 51.9434375 -136.485 51.6134375 -135.125 51.2734375 C-135.125 50.6134375 -135.125 49.9534375 -135.125 49.2734375 C-133.71779977 48.27640774 -132.30211493 47.2890993 -130.84521484 46.36621094 C-128.13818754 44.6465609 -125.55446495 42.75144374 -122.9375 40.8984375 C-117.20815289 36.90540425 -111.35181659 33.4482139 -105.125 30.2734375 C-103.96871094 29.67015625 -102.81242188 29.066875 -101.62109375 28.4453125 C-84.38069546 19.5465412 -66.85469943 12.35907117 -48.125 7.2734375 C-47.0525 6.96792969 -45.98 6.66242187 -44.875 6.34765625 C-36.50117524 4.07974538 -27.93123659 2.87707197 -19.35986328 1.61474609 C-17.74963595 1.36883198 -16.14653703 1.07451614 -14.55029297 0.75 C-9.70050653 0.0752471 -4.89160044 0.05092238 0 0 Z M-83.8359375 46.625 C-87.22199672 48.32205106 -90.63140228 49.81408655 -94.125 51.2734375 C-94.125 51.9334375 -94.125 52.5934375 -94.125 53.2734375 C-94.92357422 53.42039062 -94.92357422 53.42039062 -95.73828125 53.5703125 C-115.40933574 59.36538583 -133.06582531 78.1673989 -147.125 92.2734375 C-147.68703125 92.81226562 -148.2490625 93.35109375 -148.828125 93.90625 C-154.07536987 98.96798622 -158.58315986 104.5814456 -163.125 110.2734375 C-163.87394531 111.14742188 -164.62289062 112.02140625 -165.39453125 112.921875 C-167.42134845 115.18954161 -167.42134845 115.18954161 -167.125 118.2734375 C-167.785 118.2734375 -168.445 118.2734375 -169.125 118.2734375 C-170.54778999 120.03230777 -170.54778999 120.03230777 -171.9453125 122.32421875 C-172.48027344 123.16791016 -173.01523438 124.01160156 -173.56640625 124.88085938 C-174.12199219 125.77353516 -174.67757812 126.66621094 -175.25 127.5859375 C-175.81332031 128.46701172 -176.37664062 129.34808594 -176.95703125 130.25585938 C-180.14260327 134.91153597 -180.14260327 134.91153597 -181.125 140.2734375 C-181.785 140.2734375 -182.445 140.2734375 -183.125 140.2734375 C-192.27327895 159.57182423 -200.28103568 179.00271399 -205.25 199.8359375 C-205.40855469 200.4954541 -205.56710938 201.1549707 -205.73046875 201.83447266 C-212.70814066 231.93667699 -213.77158505 266.21811016 -206.125 296.2734375 C-205.67640625 298.17802734 -205.67640625 298.17802734 -205.21875 300.12109375 C-201.27124982 318.28704194 -201.27124982 318.28704194 -194.14257812 335.26416016 C-192.97565487 337.56832964 -192.17636085 339.88977473 -191.34765625 342.3359375 C-189.25858259 348.15725214 -186.61316957 353.49194899 -183.625 358.8984375 C-183.10381592 359.84630127 -182.58263184 360.79416504 -182.0456543 361.77075195 C-170.14497604 383.01061555 -153.19267566 406.93938346 -133.125 421.2734375 C-132.465 421.2734375 -131.805 421.2734375 -131.125 421.2734375 C-130.63 422.7584375 -130.63 422.7584375 -130.125 424.2734375 C-128.33855334 425.94217632 -128.33855334 425.94217632 -126.1875 427.4609375 C-125.47722656 427.99074219 -124.76695313 428.52054687 -124.03515625 429.06640625 C-122.21980515 430.4515002 -122.21980515 430.4515002 -120.125 430.2734375 C-120.125 430.9334375 -120.125 431.5934375 -120.125 432.2734375 C-116.90385843 434.58935772 -116.90385843 434.58935772 -113.125 435.2734375 C-113.125 435.9334375 -113.125 436.5934375 -113.125 437.2734375 C-111.46490127 438.567002 -111.46490127 438.567002 -109.27734375 439.8125 C-108.45202148 440.30669434 -107.62669922 440.80088867 -106.77636719 441.31005859 C-105.88079102 441.83422363 -104.98521484 442.35838867 -104.0625 442.8984375 C-103.15016602 443.43678223 -102.23783203 443.97512695 -101.29785156 444.52978516 C-98.58066227 446.12362192 -95.85528383 447.70215429 -93.125 449.2734375 C-92.41166504 449.68529297 -91.69833008 450.09714844 -90.96337891 450.52148438 C-82.35015389 455.44579991 -73.5977713 459.30916923 -64.22265625 462.546875 C-62.0691036 463.29279826 -59.92554157 464.06383964 -57.78125 464.8359375 C-47.07107237 468.62125893 -36.29831118 471.25833913 -25.125 473.2734375 C-23.73909668 473.52637573 -23.73909668 473.52637573 -22.32519531 473.78442383 C-4.0324638 476.99207611 14.3895124 477.95239463 32.875 476.2734375 C33.8537207 476.19496582 34.83244141 476.11649414 35.84082031 476.03564453 C52.77732538 474.64053223 68.65561964 471.31239165 84.875 466.2734375 C86.27202148 465.8395874 86.27202148 465.8395874 87.69726562 465.39697266 C99.32242985 461.71089357 110.16829499 457.09733582 120.875 451.2734375 C122.00808594 450.67015625 123.14117187 450.066875 124.30859375 449.4453125 C139.60602044 441.0273066 155.75864514 430.9464396 167.875 418.2734375 C169.42021611 416.74569726 170.96877841 415.22133856 172.51953125 413.69921875 C174.24231322 411.99491874 175.96496608 410.29048822 177.6875 408.5859375 C178.57115234 407.71904297 179.45480469 406.85214844 180.36523438 405.95898438 C181.19990234 405.13076172 182.03457031 404.30253906 182.89453125 403.44921875 C183.65870361 402.69552002 184.42287598 401.94182129 185.21020508 401.1652832 C187.09520711 399.44320509 187.09520711 399.44320509 186.875 397.2734375 C187.535 397.2734375 188.195 397.2734375 188.875 397.2734375 C190.52002063 395.49659617 190.52002063 395.49659617 192.1875 393.2109375 C192.80367188 392.39367187 193.41984375 391.57640625 194.0546875 390.734375 C194.65539062 389.92226563 195.25609375 389.11015625 195.875 388.2734375 C196.65230469 387.24089844 196.65230469 387.24089844 197.4453125 386.1875 C200.01226003 383.06090924 200.01226003 383.06090924 200.875 379.2734375 C201.535 379.2734375 202.195 379.2734375 202.875 379.2734375 C204.51595741 376.78150032 206.02516493 374.29964951 207.5 371.7109375 C207.94730469 370.93298828 208.39460938 370.15503906 208.85546875 369.35351562 C209.7715684 367.75229872 210.68333964 366.14859783 211.59082031 364.54248047 C212.70077861 362.58127279 213.82848483 360.63183383 214.9609375 358.68359375 C244.61044922 305.85905551 249.1011925 243.53690842 233.4375 185.7109375 C229.37752911 171.49308491 223.75591295 158.34033079 216.875 145.2734375 C216.37097656 144.29761719 215.86695313 143.32179688 215.34765625 142.31640625 C207.99055856 128.39702197 198.93587226 115.98676229 188.75 104.0234375 C188.24686279 103.43240234 187.74372559 102.84136719 187.2253418 102.23242188 C184.24128535 98.76256596 181.15163098 95.47386776 177.875 92.2734375 C165.875 80.2734375 165.875 80.2734375 163.375 77.5859375 C160.90507754 75.30125922 159.05366178 74.27244549 155.875 73.2734375 C155.875 72.6134375 155.875 71.9534375 155.875 71.2734375 C152.42298167 67.97053558 152.42298167 67.97053558 147.875 67.2734375 C147.875 66.6134375 147.875 65.9534375 147.875 65.2734375 C143.12714721 61.44597225 137.64143973 58.49423437 132.28515625 55.609375 C130.6026925 54.6767938 128.94499375 53.69873044 127.30859375 52.6875 C118.97345275 47.56353293 110.26514509 43.8258007 101.19433594 40.20361328 C99.11341598 39.36905486 97.04464128 38.51025111 94.9765625 37.64453125 C70.10669631 27.50319951 43.23303765 24.04979169 16.5625 24.1484375 C15.87980042 24.15065308 15.19710083 24.15286865 14.49371338 24.15515137 C-19.88306588 24.28585009 -53.09066497 30.71234138 -83.8359375 46.625 Z " fill="#FDFDFD" transform="translate(234.125,-0.2734375)"/>
<path d="M0 0 C4.47664648 2.33158671 7.70441625 5.5912925 11.1796875 9.171875 C12.89360823 10.89315161 14.65635689 12.48223448 16.5 14.0625 C20.65805912 17.64872388 24.67404661 21.37888375 28.6875 25.125 C29.65042969 26.02230835 29.65042969 26.02230835 30.6328125 26.93774414 C32.42892437 28.6178649 34.21540767 30.30766071 36 32 C37.43279297 33.34384766 37.43279297 33.34384766 38.89453125 34.71484375 C41.73995846 37.80310891 42 39.83925101 42 44 C39.82749674 50.13412685 35.28594918 54.72591561 30.7421875 59.24609375 C27.41236116 62.59015012 24.20740783 66.03901505 21 69.5 C14.56930943 76.43909987 14.56930943 76.43909987 11.35546875 79.60546875 C7.92921151 83.08854617 5.00452774 86.93205462 1.98828125 90.76953125 C1.00408203 91.87361328 1.00408203 91.87361328 0 93 C-0.66 93 -1.32 93 -2 93 C-2 93.66 -2 94.32 -2 95 C-2.66 95 -3.32 95 -4 95 C-4.226875 95.53625 -4.45375 96.0725 -4.6875 96.625 C-7.5641281 101.83032704 -11.83125012 105.83125012 -16 110 C-18.09145729 112.3902369 -20.16902876 114.79085015 -22.23046875 117.20703125 C-22.81441406 117.79871094 -23.39835938 118.39039063 -24 119 C-24.66 119 -25.32 119 -26 119 C-26.27199219 119.58910156 -26.54398438 120.17820312 -26.82421875 120.78515625 C-29.75240604 126.30104394 -34.6278533 130.6278533 -39 135 C-40.83338919 137.12832571 -42.65047567 139.26808722 -44.44921875 141.42578125 C-44.96097656 141.94527344 -45.47273437 142.46476563 -46 143 C-46.66 143 -47.32 143 -48 143 C-48.3403125 143.804375 -48.3403125 143.804375 -48.6875 144.625 C-50.92221535 148.66877064 -53.94582253 151.94956739 -57.19921875 155.19140625 C-60.71630006 158.71829811 -64.1048843 162.35613325 -67.5 166 C-74.41687008 173.42365066 -74.41687008 173.42365066 -77.6875 176.65625 C-80.1465195 179.14849949 -82.31715229 181.76375428 -84.5 184.5 C-87.48225837 188.23832388 -90.5999283 191.63907386 -94 195 C-94.825 196.010625 -95.65 197.02125 -96.5 198.0625 C-99 201 -99 201 -101.39453125 202.8671875 C-104.08571209 205.07016312 -106.0432013 207.33083242 -108.1875 210.0625 C-111.50926972 214.19799183 -114.89439485 218.24187221 -118.4375 222.1875 C-119.26121094 223.10917969 -120.08492187 224.03085937 -120.93359375 224.98046875 C-123 227 -123 227 -125 227 C-125.268125 227.58265625 -125.53625 228.1653125 -125.8125 228.765625 C-127.01480991 231.02786601 -128.33825913 232.80576318 -130 234.75 C-130.515625 235.36359375 -131.03125 235.9771875 -131.5625 236.609375 C-133 238 -133 238 -135 238 C-135 238.66 -135 239.32 -135 240 C-135.66 240 -136.32 240 -137 240 C-137.2475 240.556875 -137.495 241.11375 -137.75 241.6875 C-140.57827874 246.91981566 -144.48072062 250.23393385 -149 254 C-150.35156675 255.65191491 -151.68962066 257.31522656 -153 259 C-156.23177638 260.61588819 -159.49638615 260.434755 -163 260 C-169.53451297 257.26738549 -174.43723862 252.35943401 -179 247 C-179 246.34 -179 245.68 -179 245 C-179.66 245 -180.32 245 -181 245 C-181 244.34 -181 243.68 -181 243 C-181.66 243 -182.32 243 -183 243 C-183 242.34 -183 241.68 -183 241 C-183.66 241 -184.32 241 -185 241 C-185 240.34 -185 239.68 -185 239 C-185.66 239 -186.32 239 -187 239 C-187 238.34 -187 237.68 -187 237 C-187.56678467 236.75846191 -188.13356934 236.51692383 -188.7175293 236.26806641 C-191.45328617 234.74816896 -193.3121634 232.9300479 -195.51953125 230.7109375 C-196.37740234 229.85113281 -197.23527344 228.99132812 -198.11914062 228.10546875 C-199.00794922 227.20441406 -199.89675781 226.30335938 -200.8125 225.375 C-201.68970703 224.49714844 -202.56691406 223.61929688 -203.47070312 222.71484375 C-207.09682947 219.06430818 -210.65615848 215.41540284 -213.99194336 211.49707031 C-218.7848654 205.98592831 -224.01104581 200.91046766 -229.20458221 195.78138351 C-231.0826293 193.92560719 -232.95647252 192.06567951 -234.8291626 190.20449829 C-240.14826914 184.91876593 -245.47165174 179.6373978 -250.80517578 174.36621094 C-254.0811034 171.12798445 -257.34962766 167.88244075 -260.61356354 164.63212967 C-261.85311403 163.4006091 -263.09543101 162.17186633 -264.34059906 160.94602585 C-266.08008209 159.23310343 -267.80998676 157.51101708 -269.53808594 155.78662109 C-270.04929489 155.28776901 -270.56050385 154.78891693 -271.08720398 154.27494812 C-275.12988557 150.20940053 -277.90896231 146.45801754 -278.125 140.625 C-275.24958284 131.35976692 -265.02048915 123.80207026 -258.26586914 117.02563477 C-256.43105853 115.18102412 -254.6071952 113.32600417 -252.78320312 111.47070312 C-251.60482587 110.2858024 -250.42581143 109.10153492 -249.24609375 107.91796875 C-248.7084288 107.367957 -248.17076385 106.81794525 -247.61680603 106.25126648 C-243.64315324 102.30065721 -239.78773651 99.48482374 -234.125 98.5 C-224.53385556 100.03458311 -217.8385368 108.70166321 -211.83032227 115.6784668 C-208.23440104 119.79140183 -204.44930104 123.6634488 -200.5625 127.5 C-199.87873291 128.17998047 -199.19496582 128.85996094 -198.49047852 129.56054688 C-196.32942945 131.70950926 -194.16515274 133.85517279 -192 136 C-189.14283983 138.83033837 -186.28916546 141.66412673 -183.4375 144.5 C-182.47469116 145.45036133 -182.47469116 145.45036133 -181.49243164 146.41992188 C-177.69645832 150.19559057 -174.11403649 154.08497971 -170.65429688 158.171875 C-168.01258924 161.09116466 -165.04691061 163.51272603 -162 166 C-156.99852137 161.95625132 -152.72491058 157.61413532 -148.47265625 152.79296875 C-144.87099169 148.72473785 -141.17039848 144.74982462 -137.48046875 140.76171875 C-134.97611822 138.04325583 -134.97611822 138.04325583 -132.80078125 135.14453125 C-132.20652344 134.43683594 -131.61226562 133.72914063 -131 133 C-130.34 133 -129.68 133 -129 133 C-129 132.34 -129 131.68 -129 131 C-128.34 131 -127.68 131 -127 131 C-126.79117188 130.47277344 -126.58234375 129.94554687 -126.3671875 129.40234375 C-124.42927353 125.99715205 -121.81805324 123.38794554 -119.125 120.5625 C-118.06350568 119.44031196 -117.00358087 118.31663701 -115.9453125 117.19140625 C-115.44032227 116.65531738 -114.93533203 116.11922852 -114.41503906 115.56689453 C-113.12131005 114.13432848 -111.92542142 112.61494629 -110.7421875 111.08984375 C-109.87980469 110.05537109 -109.87980469 110.05537109 -109 109 C-108.34 109 -107.68 109 -107 109 C-107 108.34 -107 107.68 -107 107 C-106.34 107 -105.68 107 -105 107 C-104.77957031 106.46117187 -104.55914062 105.92234375 -104.33203125 105.3671875 C-102.5544585 102.20821657 -100.16509972 99.73750223 -97.6875 97.125 C-96.73168934 96.10806948 -95.77725695 95.08984174 -94.82421875 94.0703125 C-94.3554834 93.57047852 -93.88674805 93.07064453 -93.40380859 92.55566406 C-91.96016385 90.95585462 -90.61551915 89.29954889 -89.26953125 87.6171875 C-88.52058594 86.75351563 -87.77164063 85.88984375 -87 85 C-86.34 85 -85.68 85 -85 85 C-85 84.34 -85 83.68 -85 83 C-84.34 83 -83.68 83 -83 83 C-82.77957031 82.46117187 -82.55914062 81.92234375 -82.33203125 81.3671875 C-80.5544585 78.20821657 -78.16509972 75.73750223 -75.6875 73.125 C-74.73168934 72.10806948 -73.77725695 71.08984174 -72.82421875 70.0703125 C-72.3554834 69.57047852 -71.88674805 69.07064453 -71.40380859 68.55566406 C-69.96016385 66.95585462 -68.61551915 65.29954889 -67.26953125 63.6171875 C-66.52058594 62.75351563 -65.77164063 61.88984375 -65 61 C-64.34 61 -63.68 61 -63 61 C-62.78859375 60.47019531 -62.5771875 59.94039062 -62.359375 59.39453125 C-60.46497464 56.0575559 -57.87862738 53.44879379 -55.25 50.6875 C-54.16297482 49.5322725 -53.0770261 48.37603109 -51.9921875 47.21875 C-51.21439941 46.38923828 -51.21439941 46.38923828 -50.42089844 45.54296875 C-48.67250432 43.64436895 -47.0158458 41.67937251 -45.375 39.6875 C-44.59125 38.800625 -43.8075 37.91375 -43 37 C-42.34 37 -41.68 37 -41 37 C-40.7306665 36.40848145 -40.46133301 35.81696289 -40.18383789 35.20751953 C-39.00132468 33.00247015 -37.77937778 31.48358441 -36.05859375 29.6796875 C-35.18956421 28.76026367 -35.18956421 28.76026367 -34.30297852 27.82226562 C-33.37956665 26.85836914 -33.37956665 26.85836914 -32.4375 25.875 C-31.16332642 24.52934243 -29.8898892 23.18298724 -28.6171875 21.8359375 C-27.68664551 20.85318848 -27.68664551 20.85318848 -26.73730469 19.85058594 C-24.47111248 17.43662627 -22.26262078 14.97418427 -20.0625 12.5 C-8.26116649 -0.68843054 -8.26116649 -0.68843054 0 0 Z " fill="#FEFEFE" transform="translate(368,124)"/>
<path d="M0 0 C0.66 0.33 1.32 0.66 2 1 C2 3 2 3 0.3203125 4.7265625 C-0.40414062 5.35304687 -1.12859375 5.97953125 -1.875 6.625 C-2.59429687 7.25664062 -3.31359375 7.88828125 -4.0546875 8.5390625 C-6 10 -6 10 -8 10 C-6.34908222 5.70761377 -3.26245434 3.1206085 0 0 Z " fill="#FAF6F6" transform="translate(125,226)"/>
<path d="M0 0 C0.33 0.99 0.66 1.98 1 3 C-1.64 5.64 -4.28 8.28 -7 11 C-7 7.22089522 -6.00296038 6.53893899 -3.5 3.8125 C-2.8503125 3.09707031 -2.200625 2.38164062 -1.53125 1.64453125 C-1.0259375 1.10183594 -0.520625 0.55914062 0 0 Z " fill="#F1F0F1" transform="translate(237,257)"/>
<path d="M0 0 C0.99 0.33 1.98 0.66 3 1 C0.69 3.64 -1.62 6.28 -4 9 C-4.66 8.34 -5.32 7.68 -6 7 C-4.02 4.69 -2.04 2.38 0 0 Z " fill="#F4F2F3" transform="translate(271,220)"/>
</svg>
